HIERARCHY
ROOT Hips
{
	OFFSET 0.00000 0.00000 0.00000
	CHANNELS 6 Xposition Yposition Zposition Zrotation Yrotation Xrotation 
	JOINT LHipJoint
	{
		OFFSET 0 0 0
		CHANNELS 3 Zrotation Yrotation Xrotation
		JOINT LeftUpLeg
		{
			OFFSET 1.36337 -1.57426 1.11036
			CHANNELS 3 Zrotation Yrotation Xrotation
			JOINT LeftLeg
			{
				OFFSET 2.38468 -6.55187 0.00000
				CHANNELS 3 Zrotation Yrotation Xrotation
				JOINT LeftFoot
				{
					OFFSET 2.37166 -6.51609 0.00000
					CHANNELS 3 Zrotation Yrotation Xrotation
					JOINT LeftToeBase
					{
						OFFSET 0.29078 -0.79891 2.01393
						CHANNELS 3 Zrotation Yrotation Xrotation
						End Site
						{
							OFFSET 0.00000 -0.00000 1.07924
						}
					}
				}
			}
		}
	}
	JOINT RHipJoint
	{
		OFFSET 0 0 0
		CHANNELS 3 Zrotation Yrotation Xrotation
		JOINT RightUpLeg
		{
			OFFSET -1.36349 -1.57426 1.11036
			CHANNELS 3 Zrotation Yrotation Xrotation
			JOINT RightLeg
			{
				OFFSET -2.29562 -6.30717 0.00000
				CHANNELS 3 Zrotation Yrotation Xrotation
				JOINT RightFoot
				{
					OFFSET -2.40985 -6.62100 0.00000
					CHANNELS 3 Zrotation Yrotation Xrotation
					JOINT RightToeBase
					{
						OFFSET -0.23197 -0.63733 1.92232
						CHANNELS 3 Zrotation Yrotation Xrotation
						End Site
						{
							OFFSET -0.00000 -0.00000 1.01562
						}
					}
				}
			}
		}
	}
	JOINT LowerBack
	{
		OFFSET 0 0 0
		CHANNELS 3 Zrotation Yrotation Xrotation
		JOINT Spine
		{
			OFFSET -0.08565 2.03602 -0.24562
			CHANNELS 3 Zrotation Yrotation Xrotation
			JOINT Spine1
			{
				OFFSET -0.00036 2.05693 0.00216
				CHANNELS 3 Zrotation Yrotation Xrotation
				JOINT Neck
				{
					OFFSET 0 0 0
					CHANNELS 3 Zrotation Yrotation Xrotation
					JOINT Neck1
					{
						OFFSET -0.03664 1.69515 0.31789
						CHANNELS 3 Zrotation Yrotation Xrotation
						JOINT Head
						{
							OFFSET 0.00932 1.70181 -0.46013
							CHANNELS 3 Zrotation Yrotation Xrotation
							End Site
							{
								OFFSET 0.01243 1.77620 -0.19377
							}
						}
					}
				}
				JOINT LeftShoulder
				{
					OFFSET 0 0 0
					CHANNELS 3 Zrotation Yrotation Xrotation
					JOINT LeftArm
					{
						OFFSET 3.74344 0.81315 -0.36647
						CHANNELS 3 Zrotation Yrotation Xrotation
						JOINT LeftForeArm
						{
							OFFSET 4.97185 -0.00000 -0.00000
							CHANNELS 3 Zrotation Yrotation Xrotation
							JOINT LeftHand
							{
								OFFSET 3.35811 -0.00000 0.00000
								CHANNELS 3 Zrotation Yrotation Xrotation
								JOINT LeftFingerBase
								{
									OFFSET 0 0 0
									CHANNELS 3 Zrotation Yrotation Xrotation
									JOINT LeftHandIndex1
									{
										OFFSET 0.62278 -0.00000 0.00000
										CHANNELS 3 Zrotation Yrotation Xrotation
										End Site
										{
											OFFSET 0.50210 -0.00000 0.00000
										}
									}
								}
								JOINT LThumb
								{
									OFFSET 0 0 0
									CHANNELS 3 Zrotation Yrotation Xrotation
									End Site
									{
										OFFSET 0.50976 -0.00000 0.50976
									}
								}
							}
						}
					}
				}
				JOINT RightShoulder
				{
					OFFSET 0 0 0
					CHANNELS 3 Zrotation Yrotation Xrotation
					JOINT RightArm
					{
						OFFSET -3.75385 0.50666 -0.06525
						CHANNELS 3 Zrotation Yrotation Xrotation
						JOINT RightForeArm
						{
							OFFSET -4.96493 -0.00000 -0.00000
							CHANNELS 3 Zrotation Yrotation Xrotation
							JOINT RightHand
							{
								OFFSET -3.34929 -0.00000 0.00000
								CHANNELS 3 Zrotation Yrotation Xrotation
								JOINT RightFingerBase
								{
									OFFSET 0 0 0
									CHANNELS 3 Zrotation Yrotation Xrotation
									JOINT RightHandIndex1
									{
										OFFSET -0.63804 -0.00000 0.00000
										CHANNELS 3 Zrotation Yrotation Xrotation
										End Site
										{
											OFFSET -0.51441 -0.00000 0.00000
										}
									}
								}
								JOINT RThumb
								{
									OFFSET 0 0 0
									CHANNELS 3 Zrotation Yrotation Xrotation
									End Site
									{
										OFFSET -0.52226 -0.00000 0.52226
									}
								}
							}
						}
					}
				}
			}
		}
	}
}
MOTION
Frames: 9
Frame Time: 0.0571429
0.00 0.00 0.00 0 0 0 0 0 0 -21 0 0 0 0 0 0 0 0 0 0 0 0 0 0 21 0 0 0 0 0 0 0 0 0 0 0 0 0 0 0 0 0 0 0 0 0 0 -16 0 0 21 0 0 11 0 0 0 -8 0 0 0 0 0 0 0 0 0 0 0 0 0 0 0 0 0 0 0 0 8 0 0 0 0 0 0 0 0 0 0 0 0 0 0 0 0 0
0.00 0.00 0.00 26.5967 83.5337 129.2090 0.0000 0.0000 0.0000 -18.4831 17.4515 -32.5006 2.7937 10.3534 30.1289 0.0528 17.2330 -24.8903 0.6176 5.0296 13.9930 0.0000 0.0000 0.0000 9.4354 0.9126 -16.3490 -0.8439 -5.8595 16.3774 -6.8501 -23.6109 -59.5011 -6.5156 -14.9101 47.0177 1.0186 -0.7946 -16.4633 -2.0030 -0.8948 -5.6124 -2.8496 -0.3524 3.1959 6.4531 17.0722 -18.7764 -19.1722 24.8623 10.6494 -3.4208 10.4469 9.8239 -0.0000 -0.0000 0.0000 -7.7313 -9.3963 -22.0078 139.9768 -48.0836 -101.5435 -0.0000 0.0000 -30.6943 38.0692 -19.1082 -14.3805 -7.1250 0.0000 -0.0000 6.2196 6.3448 -5.5276 -0.0000 -0.0000 0.0000 27.1724 -3.4077 -19.7463 -153.7520 37.4525 -110.9620 0.0000 -0.0000 -23.7941 -32.2504 -26.1999 15.5664 7.1250 -0.0000 -0.0000 -2.8020 -60.1497 1.0361
0.00 0.00 0.00 30.2554 82.9545 132.0720 0.0000 0.0000 0.0000 -17.5335 16.9281 -31.8622 2.7699 10.3129 29.9962 0.2779 16.6588 -26.0407 0.8705 5.9486 16.6355 0.0000 0.0000 0.0000 9.1239 1.8420 -14.7266 -0.8100 -5.7433 16.0414 -8.0582 -22.1952 -62.1351 -6.8438 -15.1990 48.2812 3.5598 -0.6830 -16.2285 0.4007 -1.4516 -3.0244 -1.8901 -0.6133 5.7836 9.5774 20.4831 -14.4405 -16.4112 28.9887 14.7948 -2.2898 12.5489 11.0083 0.0000 0.0000 0.0000 -43.3645 14.0102 -6.7484 146.4521 -43.7470 -106.2005 -0.0000 0.0000 -24.7313 58.7974 -29.5339 -39.1406 -7.1250 0.0000 -0.0000 15.1247 -16.1802 -19.3087 0.0000 0.0000 0.0000 60.4524 -23.3508 -9.8409 -154.9640 36.2408 -111.6888 0.0000 -0.0000 -18.1501 -45.5422 -14.8596 14.6468 7.1250 -0.0000 -0.0000 -18.0971 -49.8421 2.2249
0.00 0.00 0.00 33.6415 82.9445 135.3530 0.0000 0.0000 0.0000 -17.2682 16.9618 -32.0337 2.8091 10.3795 30.2145 0.2911 16.4118 -25.8414 0.8772 5.9710 16.7003 0.0000 0.0000 0.0000 9.6471 1.0784 -15.1505 -0.8435 -5.8580 16.3730 -8.0009 -22.0866 -61.9280 -6.8730 -15.2240 48.3923 5.0582 -0.8323 -16.8269 1.3285 -2.1092 -1.6324 -1.9232 -0.8651 7.5537 11.6249 22.0770 -10.9113 -19.0471 31.2977 13.7371 -3.0635 13.7499 11.1877 -0.0000 -0.0000 0.0000 -64.0169 29.1018 3.7939 133.0044 -51.7095 -96.2050 -0.0000 0.0000 -19.6395 69.5320 -33.1459 -55.6810 -7.1250 0.0000 -0.0000 19.3964 -29.2595 -27.3849 -0.0000 -0.0000 0.0000 80.0325 -34.5173 2.5309 -147.5463 42.9059 -106.9513 0.0000 -0.0000 -9.4935 -51.0316 -9.9162 12.0188 7.1250 -0.0000 -0.0000 -22.2864 -44.2928 -0.4103
0.00 0.00 0.00 40.4469 83.0763 139.2410 0.0000 0.0000 0.0000 -16.7477 18.4538 -31.2061 2.8605 10.4658 30.4987 0.6404 17.9716 -30.2761 1.0414 6.4901 18.2133 0.0000 0.0000 0.0000 11.0864 -6.3707 -17.1578 -1.0697 -6.5748 18.4616 -5.5800 -25.0984 -56.7318 -5.8198 -14.2514 44.2540 0.5092 -1.2392 -19.0401 -2.5696 -1.4057 -0.0573 -3.5021 -0.5272 10.5756 11.2833 22.0362 -13.9116 -17.0515 31.2057 15.9330 -2.1212 13.4337 12.0475 0.0000 0.0000 0.0000 -37.1890 17.1918 26.6835 126.0716 -54.4620 -90.6580 -0.0000 0.0000 -22.5529 94.0493 35.5506 96.9420 -7.1250 0.0000 -0.0000 37.6391 -58.6959 -52.9295 0.0000 0.0000 0.0000 71.7086 -29.7373 14.0881 -133.3509 51.5513 -96.4767 0.0000 -0.0000 -20.0883 -60.7847 -19.9960 31.4446 7.1250 -0.0000 -0.0000 -42.8329 -61.3210 18.9318
0.00 0.00 0.00 93.3247 79.2836 186.1050 0.0000 0.0000 0.0000 -12.2454 20.5226 -34.9344 3.9482 12.0911 36.0551 1.4660 19.5898 -36.8310 1.6685 8.1385 23.1357 0.0000 0.0000 0.0000 17.7954 -12.8746 -13.1385 -0.9945 -6.3467 17.7939 -4.7132 -26.9219 -55.4114 -5.3243 -13.7400 42.2058 2.7866 -2.4330 -20.2339 -4.6429 -3.2053 1.8022 -7.8525 -1.0075 13.0199 5.6420 20.5529 -17.4264 -15.7010 31.7458 22.5674 -0.5965 12.5377 14.2172 0.0000 0.0000 0.0000 -22.5536 1.4090 29.1208 110.6637 -58.3235 -77.7946 -0.0000 0.0000 -28.0385 94.3219 36.8571 97.1812 -7.1250 0.0000 -0.0000 36.4774 -59.3306 -51.0097 0.0000 0.0000 0.0000 67.3102 -22.8601 25.0882 -117.4085 56.9619 -83.4944 0.0000 -0.0000 -26.3029 -67.9786 -24.7771 46.0176 7.1250 -0.0000 -0.0000 -70.8514 -68.3030 47.6260
0.00 0.00 0.00 98.5499 75.7611 186.6860 0.0000 0.0000 0.0000 -9.9739 19.6434 -35.4014 4.7617 13.1103 39.7826 2.0137 19.1076 -39.1238 1.6734 8.1498 23.1699 0.0000 0.0000 0.0000 19.7288 -17.4071 -12.7740 -1.3153 -7.2641 20.5003 -3.9672 -27.8624 -53.8772 -5.0991 -13.4945 41.2491 4.3495 -3.4893 -16.7242 -4.0880 -5.0201 3.1496 -8.3738 -1.8129 12.1662 4.8624 19.7967 -17.5982 -16.0691 31.4208 23.8006 -0.6855 12.1669 14.7184 -0.0000 -0.0000 0.0000 -19.3742 -4.2875 29.1660 91.5259 -59.9912 -61.3215 -0.0000 0.0000 -32.1616 94.5621 36.7471 97.5967 -7.1250 0.0000 -0.0000 36.9037 -59.5681 -51.5408 -0.0000 -0.0000 0.0000 66.4172 -17.0690 27.9075 -118.5390 56.6868 -84.4406 0.0000 -0.0000 -24.6139 -78.2699 -29.2046 66.9480 7.1250 -0.0000 -0.0000 -97.7647 68.4785 -121.3041
0.00 0.00 0.00 107.2810 71.7627 190.4870 0.0000 0.0000 0.0000 -4.7076 16.9597 -37.7545 6.2889 14.7026 46.1305 0.9753 19.2950 -33.8276 2.6736 10.1469 29.4537 0.0000 0.0000 0.0000 22.3283 -18.2345 -11.2926 -1.8405 -8.5256 24.3224 -1.9238 -28.4444 -47.6551 -5.1144 -13.5115 41.3145 6.3524 -4.9170 -12.2007 -2.8615 -7.2821 4.6405 -8.1837 -2.8750 10.7323 6.2671 18.8888 -17.4829 -15.9969 31.0276 27.6014 -0.8862 11.6998 16.7072 -0.0000 -0.0000 0.0000 -17.3489 -11.1297 27.6904 68.1528 -58.1174 -41.1993 -0.0000 0.0000 -35.5577 95.6040 35.1847 99.6639 -7.1250 0.0000 -0.0000 40.2011 -60.3630 -55.9812 -0.0000 -0.0000 0.0000 64.7359 -7.7780 31.5587 -114.3476 57.6371 -80.9183 0.0000 -0.0000 -23.7757 -81.5392 -28.4916 72.6810 7.1250 -0.0000 -0.0000 -106.6834 66.6236 -132.3433
0.00 0.00 0.00 114.6790 72.5306 193.8750 0.0000 0.0000 0.0000 -1.0161 16.3023 -45.5815 10.8192 17.8455 62.1930 -0.6344 18.7573 -20.3623 1.3333 7.3117 20.6421 0.0000 0.0000 0.0000 22.1575 -12.2823 -13.3495 -3.6511 -11.6811 34.6128 0.2046 -26.8478 -36.5725 -3.9240 -12.0586 35.9395 9.1162 -5.2181 -3.6975 -1.3012 -7.4190 4.9881 -7.0165 -3.1434 6.0119 8.6940 17.8095 -18.8009 -15.8392 30.5676 32.5686 -1.1405 11.1533 20.2450 -0.0000 0.0000 0.0000 -17.3576 -19.5917 23.6768 46.3963 -51.4345 -23.3255 -0.0000 0.0000 -36.7970 93.8497 34.3898 96.7940 -7.1250 0.0000 -0.0000 38.6693 -58.1622 -54.6436 -0.0000 0.0000 0.0000 62.7502 4.9049 32.8352 -104.8665 59.1482 -72.8380 0.0000 -0.0000 -22.6806 -85.3278 -27.2611 79.8834 7.1250 -0.0000 -0.0000 -115.9283 63.6228 -144.3282
